<?xml version="1.0" encoding="UTF-8"?>
<svg width="28px" height="25px" viewBox="0 0 28 25" version="1.1" xmlns="http://www.w3.org/2000/svg" xmlns:xlink="http://www.w3.org/1999/xlink">
    <!-- Generator: Sketch 40.3 (33839) - http://www.bohemiancoding.com/sketch -->
    <title>Group 2</title>
    <desc>Created with Sketch.</desc>
    <defs></defs>
    <g id="Landing-V1" stroke="none" stroke-width="1" fill="none" fill-rule="evenodd">
        <g id="Landing" transform="translate(-706.000000, -5286.000000)" stroke-width="2.5" stroke="#FFFFFF">
            <g id="Group-2" transform="translate(708.000000, 5288.000000)">
                <g id="Page-1">
                    <path d="M2.93823396,21.4736328 L2.40706415,21.4736328 C1.20751698,21.4736328 0.226233962,20.6028564 0.226233962,19.5387974 L0.226233962,13.6740159 C0.226233962,13.2155222 0.649177358,12.8402083 1.16630943,12.8402083 L3.05098868,12.8402083 C4.18804528,12.8402083 5.11861132,13.6659792 5.11861132,14.6749868 L5.11861132,19.5387974 C5.11861132,20.6028564 4.1373283,21.4736328 2.93823396,21.4736328 L2.93823396,21.4736328 Z" id="Stroke-1"></path>
                    <path d="M21.2127396,21.4736328 L21.7439094,21.4736328 C22.9434566,21.4736328 23.9247396,20.6028564 23.9247396,19.5387974 L23.9247396,13.6740159 C23.9247396,13.2155222 23.5017962,12.8402083 22.9846642,12.8402083 L21.0999849,12.8402083 C19.9629283,12.8402083 19.0323623,13.6659792 19.0323623,14.6749868 L19.0323623,19.5387974 C19.0323623,20.6028564 20.0136453,21.4736328 21.2127396,21.4736328 L21.2127396,21.4736328 Z" id="Stroke-3"></path>
                    <path d="M0.226415094,15.9076958 L0.226415094,11.4394042 C0.226415094,5.27390417 5.21071698,0.229029167 11.3021887,0.229029167 L12.8486038,0.229029167 C18.9405283,0.229029167 23.9243774,5.27390417 23.9243774,11.4394042 L23.9243774,15.9076958" id="Stroke-5"></path>
                </g>
            </g>
        </g>
    </g>
</svg>