<?xml version="1.0" encoding="UTF-8" standalone="no"?>
<svg
   enable-background="new 0 0 400 400"
   viewBox="0 0 400 400"
   version="1.1"
   id="svg1751"
   sodipodi:docname="safari-pinned-tab.svg"
   inkscape:version="1.2.2 (732a01da63, 2022-12-09, custom)"
   xmlns:inkscape="http://www.inkscape.org/namespaces/inkscape"
   xmlns:sodipodi="http://sodipodi.sourceforge.net/DTD/sodipodi-0.dtd"
   xmlns="http://www.w3.org/2000/svg"
   xmlns:svg="http://www.w3.org/2000/svg">
  <defs
     id="defs1755" />
  <sodipodi:namedview
     id="namedview1753"
     pagecolor="#ffffff"
     bordercolor="#000000"
     borderopacity="0.25"
     inkscape:showpageshadow="2"
     inkscape:pageopacity="0.0"
     inkscape:pagecheckerboard="0"
     inkscape:deskcolor="#d1d1d1"
     showgrid="false"
     inkscape:zoom="4.7325"
     inkscape:cx="199.89435"
     inkscape:cy="200"
     inkscape:window-width="3840"
     inkscape:window-height="2096"
     inkscape:window-x="0"
     inkscape:window-y="27"
     inkscape:window-maximized="1"
     inkscape:current-layer="svg1751" />
  <path
     id="path1741"
     d="M 50.539062 0 C 22.62909 4.7369468e-15 0 22.62909 0 50.539062 L 0 349.46094 C 4.7369468e-15 377.37091 22.62909 400 50.539062 400 L 349.46094 400 C 377.37091 400 400 377.37068 400 349.4707 L 400 50.539062 C 400 22.62909 377.37068 0 349.4707 0 L 50.539062 0 z M 85.699219 47.580078 L 168.59961 47.580078 L 234.66016 187.2793 L 115.75977 352.41992 L 36.160156 352.41992 L 164.94922 189.5 L 85.699219 47.580078 z M 271.65039 47.580078 L 350.58008 47.580078 L 248.85938 170.43945 L 223.75977 114.28906 L 271.65039 47.580078 z M 242.25 210.40039 L 321.18945 352.41992 L 237.63086 352.41992 L 198.66016 270.17969 L 242.25 210.40039 z " />
</svg>
